<?xml version="1.0" encoding="UTF-8" standalone="no"?>
<svg
   xmlns:dc="http://purl.org/dc/elements/1.1/"
   xmlns:cc="http://creativecommons.org/ns#"
   xmlns:rdf="http://www.w3.org/1999/02/22-rdf-syntax-ns#"
   xmlns:svg="http://www.w3.org/2000/svg"
   xmlns="http://www.w3.org/2000/svg"
   xmlns:sodipodi="http://sodipodi.sourceforge.net/DTD/sodipodi-0.dtd"
   xmlns:inkscape="http://www.inkscape.org/namespaces/inkscape"
   width="140"
   height="47"
   viewBox="0 0 140 47"
   version="1.1"
   id="svg31"
   sodipodi:docname="white-logo.svg"
   style="fill:none"
   inkscape:version="0.92.4 (5da689c313, 2019-01-14)">
  <metadata
     id="metadata35">
    <rdf:RDF>
      <cc:Work
         rdf:about="">
        <dc:format>image/svg+xml</dc:format>
        <dc:type
           rdf:resource="http://purl.org/dc/dcmitype/StillImage" />
        <dc:title></dc:title>
      </cc:Work>
    </rdf:RDF>
  </metadata>
  <sodipodi:namedview
     pagecolor="#ffffff"
     bordercolor="#666666"
     borderopacity="1"
     objecttolerance="10"
     gridtolerance="10"
     guidetolerance="10"
     inkscape:pageopacity="0"
     inkscape:pageshadow="2"
     inkscape:window-width="1463"
     inkscape:window-height="842"
     id="namedview33"
     showgrid="false"
     inkscape:zoom="3.5469613"
     inkscape:cx="62.122167"
     inkscape:cy="23.642931"
     inkscape:window-x="0"
     inkscape:window-y="28"
     inkscape:window-maximized="0"
     inkscape:current-layer="svg31"
     inkscape:pagecheckerboard="true" />
  <path
     d="m 138.895,33.5698 c -0.205,-0.7252 -0.84,-1.0879 -1.906,-1.0879 h -0.347 -0.043 -2.292 v 5.0959 h 2.292 0.043 2.358 v -3.187 c 0,-0.3088 -0.036,-0.5828 -0.105,-0.821 z"
     id="path4"
     style="fill:#ffffff"
     inkscape:connector-curvature="0" />
  <path
     d="m 35.3849,33.5698 c -0.5481,-0.7252 -2.2436,-1.0879 -5.0865,-1.0879 h -0.9285 -0.1142 -6.1185 v 5.0959 h 6.1185 0.1142 6.2932 v -3.187 c 0,-0.3088 -0.0927,-0.5828 -0.2782,-0.821 z"
     id="path6"
     style="fill:#ffffff"
     inkscape:connector-curvature="0" />
  <path
     d="m 23.1883,37.5778 h -3.3434 c -0.9547,0 -1.7359,-0.3039 -2.3399,-0.9131 -0.6064,-0.608 -0.9072,-1.3943 -0.9072,-2.3553 v -13.076 c 0,-1.5379 -0.4625,-2.6592 -1.3852,-3.3653 -0.9238,-0.7049 -1.9582,-1.058 -3.1044,-1.058 -1.1462,0 -2.1651,0.3531 -3.0569,1.058 -0.8929,0.7061 -1.3376,1.8262 -1.3376,3.3653 V 37.5778 H 1.0281 V 22.5786 c 0,-4.3587 1.1295,-7.2741 3.391,-8.7497 2.259,-1.4732 4.7594,-2.2739 7.4977,-2.4031 2.8012,0 5.3801,0.7372 7.7367,2.2116 2.3554,1.4757 3.5336,4.4556 3.5336,8.9412 v 14.9992 z"
     id="path8"
     style="fill:#ffffff"
     inkscape:connector-curvature="0" />
  <path
     d="m 42.9219,36.0676 c -1.3376,0.6929 -2.7549,1.1166 -4.2507,1.2745 -1.4969,0.1568 -2.8178,0.2358 -3.964,0.2358 -2.2924,0 -4.2982,-0.614 -6.0175,-1.8407 -1.7192,-1.2279 -2.5789,-3.2576 -2.5789,-6.0892 0,-2.6437 0.7788,-4.5322 2.34,-5.6643 1.5599,-1.1334 3.5491,-1.8886 5.9698,-2.2655 0.3175,0 0.7003,-0.0467 1.1462,-0.1413 0.4447,-0.0945 0.956,-0.1723 1.5279,-0.2357 2.8012,-0.3782 4.203,-1.1944 4.203,-2.4546 0,-0.9443 -0.4934,-1.5582 -1.4803,-1.8407 -0.988,-0.2836 -1.8952,-0.4248 -2.7227,-0.4248 -0.893,0 -1.6884,0.1268 -2.3875,0.3769 -0.7015,0.2526 -1.2104,0.7241 -1.5279,1.4158 h -6.3991 c 0.2533,-1.9507 1.1462,-3.5556 2.6741,-4.8146 1.7192,-1.4469 4.1697,-2.171 7.355,-2.171 3.5658,0 6.2398,0.5984 8.0233,1.794 1.8464,1.2602 2.7703,3.0207 2.7703,5.2874 v 8.5905 c 0,2.518 -0.4625,4.4843 -1.3852,5.9001 -0.9238,1.4146 -2.0224,2.4379 -3.2958,3.0674 z M 41.394,24.4552 c -0.8929,0.4416 -2.1342,0.8497 -3.7251,1.2267 l -2.1972,0.4715 c -1.1462,0.316 -1.9749,0.7241 -2.4838,1.2267 -0.4459,0.693 -0.6682,1.3847 -0.6682,2.0764 0,0.9443 0.2866,1.6995 0.8596,2.2655 0.5731,0.5051 1.4007,0.7552 2.4838,0.7552 1.7823,0 3.1829,-0.5026 4.2031,-1.5103 1.0177,-1.0065 1.5278,-2.3912 1.5278,-4.1541 z"
     id="path10"
     style="fill:#ffffff"
     inkscape:connector-curvature="0" />
  <path
     d="m 56.7855,43.7305 c 0,0.8964 -0.3198,1.6659 -0.9548,2.3074 -0.6373,0.6403 -1.4018,0.961 -2.2923,0.961 H 50.2913 V 23.0597 c 0,-4.4855 1.3043,-7.5469 3.9165,-9.1817 2.6098,-1.6348 5.4442,-2.4522 8.5012,-2.4522 1.591,0 3.2,0.3052 4.824,0.9131 1.624,0.6104 2.913,1.49 3.869,2.6437 1.91,2.5001 2.865,5.7051 2.865,9.615 0,4.0379 -0.956,7.3063 -2.865,9.8064 -1.913,2.4378 -4.365,3.6538 -7.358,3.6538 -1.592,0 -2.994,-0.2885 -4.203,-0.8653 -1.274,-0.6403 -2.2922,-1.6348 -3.0567,-2.98 v 9.518 z M 67.674,24.886 c 0,-2.5001 -0.478,-4.4221 -1.433,-5.7685 -0.954,-1.3464 -2.325,-2.019 -4.106,-2.019 -1.72,0 -3.057,0.6726 -4.012,2.019 -0.8928,1.2183 -1.3375,3.1415 -1.3375,5.7685 0,2.4366 0.478,4.2629 1.4325,5.48 0.955,1.3464 2.324,2.019 4.107,2.019 1.655,0 2.961,-0.6726 3.916,-2.019 0.956,-1.3463 1.433,-3.1726 1.433,-5.48 z"
     id="path12"
     style="fill:#ffffff"
     inkscape:connector-curvature="0" />
  <path
     d="m 83.591,12.0024 v 9.4223 l 8.119,-9.4223 h 8.024 l -9.075,9.8065 9.17,15.7676 h -8.023 l -4.68,-8.6528 c -0.955,-1.7305 -1.784,-2.4665 -2.484,-2.2116 -0.702,0.2573 -1.051,0.6415 -1.051,1.1537 v 3.5568 6.1539 H 76.905 V 4.50342 h 3.439 c 0.89,0 1.655,0.32193 2.292,0.96101 0.636,0.64148 0.955,1.3787 0.955,2.21165 z"
     id="path14"
     style="fill:#ffffff"
     inkscape:connector-curvature="0" />
  <path
     d="m 102.805,12.0024 h 3.438 c 0.891,0 1.656,0.322 2.293,0.9611 0.636,0.6414 0.955,1.411 0.955,2.3074 v 22.3056 h -6.686 z"
     id="path16"
     style="fill:#ffffff"
     inkscape:connector-curvature="0" />
  <path
     d="m 134.383,37.5778 h -3.343 c -0.955,0 -1.736,-0.3039 -2.34,-0.9131 -0.607,-0.608 -0.907,-1.3943 -0.907,-2.3553 v -13.076 c 0,-1.5379 -0.463,-2.6592 -1.386,-3.3653 -0.923,-0.7049 -1.958,-1.058 -3.104,-1.058 -1.146,0 -2.165,0.3531 -3.057,1.058 -0.893,0.7061 -1.337,1.8262 -1.337,3.3653 v 16.3444 h -6.686 V 22.5786 c 0,-4.3587 1.129,-7.2741 3.391,-8.7497 2.259,-1.4732 4.759,-2.2739 7.498,-2.4031 2.801,0 5.38,0.7372 7.736,2.2116 2.356,1.4757 3.534,4.4556 3.534,8.9412 v 14.9992 z"
     id="path18"
     style="fill:#ffffff"
     inkscape:connector-curvature="0" />
  <path
     d="m 106.148,10.1379 c 1.847,0 3.344,-1.50669 3.344,-3.36532 0,-1.85864 -1.497,-3.36535 -3.344,-3.36535 -1.846,0 -3.343,1.50671 -3.343,3.36535 0,1.85863 1.497,3.36532 3.343,3.36532 z"
     id="path20"
     style="fill:#ffffff"
     inkscape:connector-curvature="0" />
  <path
     d="m 106.148,6.77246 h -3.343 v 3.36534 h 3.343 z"
     id="path22"
     style="fill:#ffffff"
     inkscape:connector-curvature="0" />
  <defs
     id="defs29">
    <linearGradient
       id="paint0_linear"
       x1="-0.68016899"
       y1="36.797199"
       x2="31.977501"
       y2="4.3524399"
       gradientUnits="userSpaceOnUse">
      <stop
         stop-color="#7F71D9"
         id="stop24" />
      <stop
         offset="1"
         stop-color="#0CC8F2"
         id="stop26" />
    </linearGradient>
  </defs>
</svg>
